/* XPM */
static char *image[] = {
"48 48 333 2",
"   c None",
"00 c #be7945",
"10 c #d7854c",
"20 c #e38f51",
"30 c #ed9355",
"40 c #ea9254",
"50 c #e38f52",
"60 c #c27946",
"70 c #cc8149",
"80 c #ea9153",
"90 c #ce8149",
":0 c #d8884d",
";0 c #d6864d",
"A0 c #c07945",
"B0 c #ec9454",
"C0 c #c47b47",
"D0 c #e08b50",
"E0 c #e89152",
"F0 c #e99252",
"G0 c #e99154",
"H0 c #ea9255",
"I0 c #ea9252",
"J0 c #de8c50",
"K0 c #ee9759",
"L0 c #ef9b5f",
"M0 c #ef9c61",
"N0 c #e38d50",
"O0 c #c67b47",
"P0 c #f1a670",
"Q0 c #e0a37c",
"R0 c #c29986",
"S0 c #bd9687",
"T0 c #ca9b83",
"U0 c #e6a57a",
"V0 c #c77c47",
"W0 c #f0a36c",
"X0 c #c19e94",
"Y0 c #6980b6",
"Z0 c #3b69b5",
"a0 c #6175a7",
"b0 c #aa908e",
"c0 c #eca674",
"d0 c #ef9a5e",
"e0 c #ec9354",
"f0 c #d5854c",
"g0 c #ef9a5c",
"h0 c #eba473",
"i0 c #8790ba",
"j0 c #5270ad",
"k0 c #d9884e",
"l0 c #cb9c84",
"m0 c #e4a377",
"n0 c #728bc7",
"o0 c #4780df",
"p0 c #3967b4",
"q0 c #305696",
"r0 c #335691",
"s0 c #907775",
"t0 c #d4844b",
"u0 c #eb9b62",
"v0 c #7788ba",
"w0 c #eca06a",
"x0 c #748cc6",
"y0 c #3660a8",
"z0 c #395992",
"01 c #786e7c",
"11 c #b48169",
"21 c #dc905c",
"31 c #d2834c",
"41 c #b89691",
"51 c #748bc4",
"61 c #9794b0",
"71 c #3968b6",
"81 c #3764ae",
"91 c #32599c",
":1 c #6d6a80",
";1 c #dd8f5b",
"A1 c #ea9354",
"B1 c #7d8dbd",
"C1 c #3d6ebf",
"D1 c #495f90",
"E1 c #516088",
"F1 c #af806a",
"G1 c #da884e",
"H1 c #5284db",
"I1 c #d89d7a",
"J1 c #ef995b",
"K1 c #ef9b5e",
"L1 c #f1a974",
"M1 c #f1a671",
"N1 c #ef9e64",
"O1 c #e48f52",
"P1 c #e39560",
"Q1 c #4277cf",
"R1 c #3b6ab9",
"S1 c #6376a6",
"T1 c #dba27d",
"U1 c #f1a56e",
"V1 c #f0a36b",
"W1 c #f1a772",
"X1 c #c79a85",
"Y1 c #7a85ac",
"Z1 c #5983d4",
"a1 c #6683bf",
"b1 c #ad9494",
"c1 c #e58f51",
"d1 c #e79153",
"e1 c #d09170",
"f1 c #727ba1",
"g1 c #83829b",
"h1 c #5d74a8",
"i1 c #838fbc",
"j1 c #eba271",
"k1 c #e79253",
"l1 c #ea9355",
"m1 c #e99d6a",
"n1 c #c89075",
"o1 c #4074ca",
"p1 c #4780e0",
"q1 c #828ebc",
"r1 c #ed9e66",
"s1 c #ed9558",
"t1 c #ed9658",
"u1 c #98848d",
"v1 c #cd9270",
"w1 c #447bd7",
"x1 c #457cd9",
"y1 c #a0878c",
"z1 c #ef9d63",
"02 c #e99253",
"12 c #5f73a4",
"22 c #a38b8d",
"32 c #6a7bad",
"42 c #5971a7",
"52 c #3e69b4",
"62 c #3c6ab8",
"72 c #ba8a73",
"82 c #f09d60",
"92 c #ed9455",
":2 c #526ea9",
";2 c #426bb3",
"A2 c #c09382",
"B2 c #e99457",
"C2 c #dc925f",
"D2 c #f09c5f",
"E2 c #4c6caa",
"F2 c #a494a1",
"G2 c #ec9758",
"H2 c #f1a46e",
"I2 c #596da0",
"J2 c #567abf",
"K2 c #ed9556",
"L2 c #df915c",
"M2 c #e79459",
"N2 c #ee985b",
"O2 c #6a7195",
"P2 c #3f70c2",
"Q2 c #968087",
"R2 c #e99961",
"S2 c #f09f64",
"T2 c #8a7e8f",
"U2 c #3865b0",
"V2 c #3f5b91",
"W2 c #b48674",
"X2 c #ee985a",
"Y2 c #f09d61",
"Z2 c #a08f9a",
"a2 c #ba9994",
"b2 c #516aa0",
"c2 c #dd925e",
"d2 c #efa26a",
"e2 c #707da9",
"f2 c #5584da",
"g2 c #3b6bbb",
"h2 c #898399",
"i2 c #e2a47b",
"j2 c #eda878",
"k2 c #ee9657",
"l2 c #ee9a60",
"m2 c #ee9f65",
"n2 c #b68874",
"o2 c #437ad5",
"p2 c #7d8ec1",
"q2 c #e6a375",
"r2 c #e79862",
"s2 c #f0a672",
"t2 c #6d779f",
"u2 c #477fdf",
"v2 c #3c6dbe",
"w2 c #6d8bca",
"x2 c #e49f71",
"y2 c #ee9558",
"z2 c #efa46d",
"03 c #e6935a",
"13 c #5e73a6",
"23 c #4277d0",
"33 c #7c82a8",
"43 c #f0985b",
"53 c #efa066",
"63 c #e79358",
"73 c #747594",
"83 c #3e70c4",
"93 c #3d6fc1",
":3 c #988287",
";3 c #f0a168",
"A3 c #f0a46d",
"B3 c #eda978",
"C3 c #eda571",
"D3 c #ee9656",
"E3 c #f0a772",
"F3 c #f0a066",
"G3 c #ac8578",
"H3 c #516fac",
"I3 c #3c6cbc",
"J3 c #437ad4",
"K3 c #3e5f9d",
"L3 c #df925e",
"M3 c #f0a067",
"N3 c #c69d8b",
"O3 c #7d8ebf",
"P3 c #9d95ab",
"Q3 c #9c95ac",
"R3 c #828fbc",
"S3 c #5184db",
"T3 c #7990c8",
"U3 c #eda069",
"V3 c #eca675",
"W3 c #efa36d",
"X3 c #e9965a",
"Y3 c #a78a88",
"Z3 c #5a6f9f",
"a3 c #3a67b5",
"b3 c #3a69b7",
"c3 c #4372c4",
"d3 c #b98d79",
"e3 c #eba678",
"f3 c #9e909d",
"g3 c #4274c6",
"h3 c #4073c9",
"i3 c #5188e4",
"j3 c #eea573",
"k3 c #ee9556",
"l3 c #ef9c60",
"m3 c #e7a87d",
"n3 c #f09f66",
"o3 c #ee9758",
"p3 c #ee9555",
"q3 c #dc915e",
"r3 c #8c7a80",
"s3 c #8e8495",
"t3 c #436bb2",
"u3 c #4378d2",
"v3 c #4d74bc",
"w3 c #a99497",
"x3 c #9e8c93",
"y3 c #5c86d5",
"z3 c #4276cf",
"04 c #3e6fc2",
"14 c #568be5",
"24 c #6a9ae8",
"34 c #ef995c",
"44 c #f0a46c",
"54 c #c1a29c",
"64 c #e3a77f",
"74 c #f0a46e",
"84 c #f09f65",
"94 c #a38077",
":4 c #385a97",
";4 c #355fa7",
"A4 c #3865b1",
"B4 c #4379d3",
"C4 c #3a6ab8",
"D4 c #3a69b6",
"E4 c #467fde",
"F4 c #467edc",
"G4 c #3f72c7",
"H4 c #5d8ee0",
"I4 c #648ed5",
"J4 c #f1a770",
"K4 c #9194b3",
"L4 c #a9959a",
"M4 c #ca9e8a",
"N4 c #d4a080",
"O4 c #8f8699",
"P4 c #5876b3",
"Q4 c #3f72c6",
"R4 c #467edd",
"S4 c #4074cb",
"T4 c #3b6bba",
"U4 c #3e70c3",
"V4 c #3d6ec0",
"W4 c #3f71c6",
"X4 c #4981e2",
"Y4 c #568ae4",
"Z4 c #6999e8",
"a4 c #6997e3",
"b4 c #618cd3",
"c4 c #4f7dc8",
"d4 c #4a82df",
"e4 c #4377ce",
"f4 c #3e6ab4",
"g4 c #4781e1",
"h4 c #4882e3",
"i4 c #4881e2",
"j4 c #457cd8",
"k4 c #4073c8",
"l4 c #3a68b6",
"m4 c #3e6bb7",
"n4 c #4c76bd",
"o4 c #5d85c7",
"p4 c #6590da",
"q4 c #6b99e9",
"r4 c #6693db",
"s4 c #5982c5",
"t4 c #598adc",
"u4 c #538ae5",
"v4 c #4e86e4",
"w4 c #4a83e3",
"x4 c #4982e3",
"y4 c #4a82e2",
"z4 c #426fbb",
"05 c #4671bb",
"15 c #4e77bd",
"25 c #587fc1",
"35 c #5f84c4",
"45 c #5c83c4",
"55 c #6897e8",
"65 c #6b9ae9",
"75 c #6d9ae9",
"85 c #6c9ae9",
"95 c #658fd5",
":5 c #5d85c5",
";5 c #5c84c6",
"                                                                                                ",
"                                                                                                ",
"                                                                                                ",
"                                                                                                ",
"                                      ;5:59585757585656555                                      ",
"                                4535251505z4y4x4x4w4v4u4t4s4r4q4                                ",
"                            p4o4n4m4l4l4l4k4j4i4h4h4h4g4f4e4d4c4b4a4                            ",
"                          Z4Y4X4W4l4l4l4l4V4U4T4S4R4h4h4Q4P4O4N4M4L4K4                          ",
"              J4      I4H4w4G4F4E4U4l4D4C4l4l4l4l4l4B4h4W4A4;4:49484746454                      ",
"            4434    2414h4E404z3h4y3x3w3v3l4l4l4l4l4T4u3D4l4t3s3r3q3p3o3n3m3                    ",
"            l3k3j3Z4i3h4h4h4h3g3f3e3d3c3b3u3l4l4l4l4l4l4l4l4a3Z3Y3X3p3p3p3o3W3V3                ",
"            k3p3U3T3S3R3Q3P3O3N3M3L3K3J3I3T4l4l4l4l4l4l4l4l4D4k4G4H3G3p3p3p3p3F3E3              ",
"            p3p3D3C3B3A3;3;3A3l3p3:3S4l4l4l4l4l4l4l4l4l4l4l493E4h4F4837363p3p3p353              ",
"          43p3p3p3k3D3p3p3p3p3p3p333h4u3D4l4l4l4l4l4l4l4l4l483l40423g4u31303p3p3p3z2            ",
"          y2p3p3p3p3p3p3p3p3p3p3p3x2w2B4v2l4l4l4l4l4l4l4l4l4l4l4v2u2h4h4j4t2p3p3p3o3s2          ",
"          r2p3p3p3p3p3p3p3p3p3p3p3o3q2p2h4I3l4l4l4l4l4l4l4l4l4l4l4l483i4h4o2n2p3p3p3m2          ",
"          l2p3p3p3p3p3p3p3p3p3p3p3p3k274j2i2h2l4l4l4l4l4l4l4l4l4l4l4l4g2F4f2e2p3p3p3o3          ",
"        d2p3p3p3p3p3p3p3p3p3p3p3p3p3p3p3D3c2b2l4l4l4l4l4l4l4l4l4l4l4l4l4S4a2Z2p3p3p3p3Y2        ",
"        X2p3p3p3p3p3p3p3p3p3p3p3p3p3p3p3W2V2U2l4l4l4l4l4l4l4l4l4l4l4l4l4l4T2S2p3p3p3p3R2        ",
"      S2p3p3p3p3p3p3p3p3p3p3p3p3p3p3p3Q2P223l4l4l4l4l4l4l4l4l4l4l4l4l4l4l4O2p3p3p3p3p3N2        ",
"      M2L2p3p3p3p3p3p3p3p3p3p3p3p3p3K2J2i4h4h3l4l4l4l4l4l4l4l4l4l4l4l4l4l4I2p3p3p3p3p3k3H2      ",
"        G2p3p3p3p3p3p3p3p3p3p3p3p3p3p3F2h4h4R4l4l4l4l4l4l4l4l4l4l4l4l4l4l4E2p3p3p3p3p3p3D2      ",
"        p3p3p3p3p3p3p3p3p3p3p3p3C2B2p3A2h4h4i4g2l4l4l4l4l4l4l4l4l4l4l4l4;2:2p3p3p3p3p3p392      ",
"      82p3p3p3p3p3p3p3p3p3p3p37262524232h4h4h4U4l4l4l4l4l4l4l4l4l4l4l4l42212p3p3p3p3p3p302      ",
"      z1p3p3p3p3p3p3p3p3p3p3p3y1i4i4x1w1h4h4h4k4l4l4l4l4l4l4l4l4l4l4l4l4v1u1p3p3p3p3p3p3t1      ",
"      s1p3p3p3p3p3p3p3p3p3p3p3r1q1h4h4h4h4h4p1b3l4l4l4l4l4l4l4l4l4I3V4o1n1m1p3p3p3p3p3p3l1      ",
"      k1p3p3p3p3p3p3p3p3p3p3p3k3j1i1h4h4h4i483h1g1f152l4l4l4l4l4l4o2h4h4e1D3p3p3p3p3p3p3d1      ",
"      c1p3p3p3p3p3p3p3p3p3p3p3p3D3z2b1a1Z1Y1X1W1V1U1T1S1l4l4l4R1Q1i4h4h4P1p3p3p3p3p3p3p3O1      ",
"        p3p3p3p3p3p3p3p3p3p3p3p3p3p3N1M1L1A3K1p3p3p3J1I1l4l4l4Q1h4h4h4H1o3p3p3p3p3p3p3p3G1      ",
"        p3p3p3p3p3p3p3p3p3p3p3p3p3p3p3p3p3p3p3p3p3F1E1D1l4C1w1h4h4h4H1B1p3p3p3p3p3p3p3p3        ",
"        A1p3p3p3p3p3p3p3p3p3p3p3p3p3p3p3p3p3p3;1:1918171o2h4h4h4h4615141p3p3p3p3p3p3p3A1        ",
"        31p3p3p3p3p3p3p3p3p3p3p3p3p3p3p3211101z0y0l4l4G4h4h4h4h4x0w0v0u0p3p3p3p3p3p3p3t0        ",
"          p3p3p3p3p3p3p3p3p3p3p3p3p3s0r0q091y0p0l4l4l4T4o0h4h4n0m0L3l0k3p3p3p3p3p3p392          ",
"          k0p3p3p3p3p3p3p3p3p3p3p3p3N1X1j0l4l4l4l4l4l4l4S4h4i0h0o3k2g0p3p3p3p3p3p3p3f0          ",
"            e0p3p3p3p3p3p3p3p3p3p3p3p3d0c0b0a0Z0l4l4l4l4Y0X0W0D3p3p3p3p3p3p3p3p3p392            ",
"            V0p3p3p3p3p3p3p3p3p3p3p3p3p3D3N1M1U0T0S0R0Q0P0l3p3p3p3p3p3p3p3p3p3p3p3O0            ",
"              N0p3p3p3p3p3p3p3p3p3p3p3p3p3p3p3o3d0M0L0K0p3p3p3p3p3p3p3p3p3p3p3p3J0              ",
"                I0p3p3p3p3p3p3p3p3p3p3p3p3p3p3p3p3p3p3p3p3p3p3p3p3p3p3p3p3p3p302                ",
"                  H0p3p3p3p3p3p3p3p3p3p3p3p3p3p3p3p3p3p3p3p3p3p3p3p3p3p3p3p3G0                  ",
"                    F0p3p3p3p3p3p3p3p3p3p3p3p3p3p3p3p3p3p3p3p3p3p3p3p3p3p3E0                    ",
"                      N0p3p3p3p3p3p3p3p3p3p3p3p3p3p3p3p3p3p3p3p3p3p3p3p3D0                      ",
"                        C092p3p3p3p3p3p3p3p3p3p3p3p3p3p3p3p3p3p3p3p3B0A0                        ",
"                            ;0p3p3p3p3p3p3p3p3p3p3p3p3p3p3p3p3p3p3:0                            ",
"                                9080p3p3p3p3p3p3p3p3p3p3p3p3A170                                ",
"                                      60:050403030A1201000                                      ",
"                                                                                                ",
"                                                                                                ",
"                                                                                                "};
