/* XPM */
static char *image[] = {
"48 48 94 2",
"   c None",
"00 c #f7ba06",
"10 c #eeb406",
"20 c #dea806",
"30 c #e7af06",
"40 c #f1b706",
"50 c #d39f06",
"60 c #fdbf06",
"70 c #f58915",
"80 c #f69013",
"90 c #f4b907",
":0 c #f5ba06",
";0 c #f05f20",
"A0 c #f7bb06",
"B0 c #f0601f",
"C0 c #f1651e",
"D0 c #ef5a21",
"E0 c #f05e20",
"F0 c #fbbd06",
"G0 c #fdb808",
"H0 c #eb4327",
"I0 c #e82d2d",
"J0 c #ec4826",
"K0 c #fdbb07",
"L0 c #fcb309",
"M0 c #ea3829",
"N0 c #ea3a2a",
"O0 c #fcb50a",
"P0 c #fec92a",
"Q0 c #fecb30",
"R0 c #fec20e",
"S0 c #f79312",
"T0 c #faa50d",
"U0 c #e9322c",
"V0 c #e9352b",
"W0 c #fbaa0c",
"X0 c #f68f13",
"Y0 c #f68e13",
"Z0 c #fec61e",
"a0 c #fec927",
"b0 c #f58815",
"c0 c #f68d14",
"d0 c #fec007",
"e0 c #ffca2b",
"f0 c #eeb506",
"g0 c #fec20f",
"h0 c #fec929",
"i0 c #fec008",
"j0 c #fec311",
"k0 c #fec92c",
"l0 c #fec313",
"m0 c #fec109",
"n0 c #fec312",
"o0 c #fecc35",
"p0 c #fdc20c",
"q0 c #fecc34",
"r0 c #fecc38",
"s0 c #fecb35",
"t0 c #fdc207",
"u0 c #fabd05",
"v0 c #f3b705",
"w0 c #f1b705",
"x0 c #fec10c",
"y0 c #fbbf09",
"z0 c #ffc826",
"01 c #f7bc0c",
"11 c #fec006",
"21 c #f7bc0b",
"31 c #fec926",
"41 c #d2aa2f",
"51 c #cba42d",
"61 c #d3aa2f",
"71 c #ffd148",
"81 c #fed147",
"91 c #fece3a",
":1 c #fed042",
";1 c #fed24b",
"A1 c #ffd34c",
"B1 c #fece3d",
"C1 c #fecf40",
"D1 c #fed043",
"E1 c #fed148",
"F1 c #fdd44c",
"G1 c #fdd34b",
"H1 c #fed24c",
"I1 c #fecd38",
"J1 c #fece3b",
"K1 c #fed24d",
"L1 c #fdd24b",
"M1 c #fed14a",
"N1 c #fecd3a",
"O1 c #fecf3e",
"P1 c #fed149",
"Q1 c #fed14b",
"                                                                                                ",
"                                                                                                ",
"                                                                                                ",
"                                                                                                ",
"                                                                                                ",
"                                                                                                ",
"                                                Q1Q1Q1Q1                                        ",
"                                              P1O1N1N1O1M1                                      ",
"                                          L1K1J1I1I1I1I1J1H1G1                                  ",
"                                  F1H1E1D1C1B1I1I1I1I1I1I1B1C1D1E1K1A1                          ",
"                                ;1:191I1I1I1I1I1I1I1I1I1I1I1I1I1I191:1Q1                        ",
"                              81N1I1I1I1I1I1I1I1I1I1I1I1I1I1I1I1I1I1I1N171                      ",
"                              61515151515151515151515151515151515151515141                      ",
"                            3121111111111111111111111111111111111111111101z0                    ",
"                            y011111111111111111111111111111111111111111111x0                    ",
"                            w01111111111111111111111111111111111111111111111                    ",
"                            v01111111111111111111111111111111111111111111111                    ",
"                            u01111111111111111111111111111111111111111111111                    ",
"                            t01111111111111111111111111111111111111111111111                    ",
"        s0I1r0q0            p01111111111111111111111111111111111111111111111I1I1I1I1I1o0        ",
"        n011m0l0k0          j011111111111111111111111111111111111111111111111111111111n0        ",
"        11111111i0h0        g01111111111111111111111111111111111111111111111111111111111        ",
"        f011111111n0      e0d011111111111111111111c0b01111111111111111111111      111111        ",
"            11111111a0    Z011111111Y0X011111111W0V0U0T011111111S0Y011111111      111111        ",
"            11111111R0Q0P0i0111111O0N0M0L01111K0J0I0I0H0G01111O0N0M0L0111111      111111        ",
"            F011111111111111111111E0I0I0D01111C0I0I0I0I0B01111E0I0I0D0111111      111111        ",
"            A011111111111111111111E0I0I0D01111C0I0I0I0I0B01111;0I0I0D0111111      111111        ",
"            :011111111111111111111O0N0M0L01111K0J0I0I0H0G01111O0N0M0L0111111      111111        ",
"            901111111111111111111111X0X011111111W0V0U0T01111111180Y011111111      111111        ",
"              11111111111111111111111111111111111170b01111111111111111111111      111111        ",
"              60111111111111111111111111111111111111111111111111111111111111      111111        ",
"              50111111111111111111111111111111111111111111111111111111111111      111111        ",
"                  4011111111111111111111111111111111111111111111111111111111      111111        ",
"                      301111111111111111111111111111111111111111111111111111      111111        ",
"                          60111111111111111111111111111111111111111111111111      111111        ",
"                          20111111111111111111111111111111111111111111111111      111111        ",
"                            111111111111111111111111111111111111111111111111I1I1I1111111        ",
"                            111111111111111111111111111111111111111111111111111111111111        ",
"                            111111111111111111111111111111111111111111111111111111111110        ",
"                            111111111111111111111111111111111111111111111111                    ",
"                            A01111111111111111111111111111111111111111111100                    ",
"                              A0111111111111111111111111111111111111111100                      ",
"                                                                                                ",
"                                                                                                ",
"                                                                                                ",
"                                                                                                ",
"                                                                                                ",
"                                                                                                "};
