/* XPM */
static char *image[] = {
"48 48 96 2",
"   c None",
"00 c #b5b5b5",
"10 c #c9c9c9",
"20 c #a9b5da",
"30 c #6286f7",
"40 c #acb7d9",
"50 c #bbbbbb",
"60 c #5e84f9",
"70 c #cbcbcb",
"80 c #5a81fa",
"90 c #cfcfcf",
":0 c #cacaca",
";0 c #a5b2dc",
"A0 c #a1b0de",
"B0 c #bdbdbd",
"C0 c #c28e35",
"D0 c #9cacdf",
"E0 c #c7c7c7",
"F0 c #a4b2dc",
"G0 c #507bfe",
"H0 c #d2d2d2",
"I0 c #c5c5c5",
"J0 c #b7bed5",
"K0 c #517bfe",
"L0 c #d79e3d",
"M0 c #c6c6c6",
"N0 c #94a7e2",
"O0 c #ffc665",
"P0 c #cfa96a",
"Q0 c #b4bcd6",
"R0 c #507afe",
"S0 c #4e79ff",
"T0 c #4f7aff",
"U0 c #9caddf",
"V0 c #cecece",
"W0 c #fec667",
"X0 c #c6a467",
"Y0 c #adadac",
"Z0 c #b2bbd6",
"a0 c #90a4e5",
"b0 c #b1bad7",
"c0 c #d5d5d5",
"d0 c #fdc464",
"e0 c #cda45c",
"f0 c #a5a5a4",
"g0 c #f9b947",
"h0 c #d5a755",
"i0 c #a3a3a1",
"j0 c #d7a752",
"k0 c #a5a5a3",
"l0 c #d5a754",
"m0 c #acacab",
"n0 c #d0a75e",
"o0 c #b6b6b6",
"p0 c #cccccc",
"q0 c #cdcdcd",
"r0 c #cfad70",
"s0 c #b7b7b6",
"t0 c #d4d4d4",
"u0 c #d7b273",
"v0 c #fcba47",
"w0 c #f8b645",
"x0 c #d8a03c",
"y0 c #dea33f",
"z0 c #ffbd4c",
"01 c #d9a03c",
"11 c #fdbb47",
"21 c #ffc663",
"31 c #ffbe4f",
"41 c #ffbe4e",
"51 c #ffc35a",
"61 c #ffc661",
"71 c #ffc053",
"81 c #ffc35b",
"91 c #ffc768",
":1 c #ffc154",
";1 c #ffc563",
"A1 c #ffc560",
"B1 c #ffbd49",
"C1 c #ffc662",
"D1 c #ffc762",
"E1 c #ffbd4a",
"F1 c #ffbd4b",
"G1 c #ffc664",
"H1 c #ffc767",
"I1 c #ffc155",
"J1 c #ffbc48",
"K1 c #ffbc49",
"L1 c #ffc156",
"M1 c #ffc867",
"N1 c #ffca6a",
"O1 c #ffc561",
"P1 c #ffc45d",
"Q1 c #ffc562",
"R1 c #ffc86a",
"S1 c #ffc869",
"                                                                                                ",
"                                                                                                ",
"                                                                                                ",
"                                                                                                ",
"                                                                                                ",
"                                                                                                ",
"                                                          S1R1Q1P1P1O1N1S1                      ",
"                                                        M1L1K1J1J1J1J1K1I1H1                    ",
"                                                      G1F1J1J1J1J1J1J1J1J1E1D1                  ",
"                                                    C1B1J1J1J1J1J1J1J1J1J1J1K1A1                ",
"                                                  C1B1J1J1J1J1J1J1J1J1J1J1J1J1K1O1              ",
"                                                C1B1J1J1J1J1J1J1J1J1J1J1J1J1J1J1E1Q1            ",
"                                              ;1B1J1J1J1J1J1J1J1J1J1J1J1J1J1J1J1J1:1            ",
"                                  R1R1      C1B1J1J1J1J1J1J1J1J1J1J1J1J1J1J1J1J1J1K1            ",
"                                918171H1  61B1J1J1J1J1J1J1J1J1J1J1J1J1J1J1J1J1J1J1J1            ",
"                              9151J1J141H131J1J1J1J1J1J1J1J1J1J1J1J1J1J1J1J1J1J1J1J1            ",
"                              51J1J1J1J14121F1J1J1J1J1J1J1J1J1J1J1J1J1J1J1J1J1J1J1J1            ",
"                              J1J1J1J1J1J14121F1J1J1J1J1J1J1J1J1J1J1J1J1J1J1J1J1J111            ",
"                              01J1J1J1J1J1J14121z0J1J1J1J1J1J1J1J1J1J1J1J1J1J1J1J1y0            ",
"                                x0J1J1J1J1J1J14121z0J1J1J1J1J1J1J1J1J1J1J1J1J1J1w0              ",
"                                  x0J1J1J1J1J1J14121z0J1J1J1J1J1J1J1J1J1J1J1J1v0                ",
"                                    u0J1J1J1J1J1J14121z0J1J1J1J1J1J1J1J1J1J1v0                  ",
"                                  t0s0r0J1J1J1J1J1J14121z0J1J1J1J1J1J1J1J1v0                    ",
"                                t0q0p0o0n0J1J1J1J1J1J14121z0J1J1J1J1J1J1v0                      ",
"                              t0q0p0p0p0m0l0J1J1J1J1J1J14121z0J1J1J1J1v0                        ",
"                            t0q0p0p0p0p0p0k0j0J1J1J1J1J1J14121z0J1J1v0                          ",
"                          t0q0p0p0p0p0p0p0p0i0h0J1J1J1J1J1J14121z0g0                            ",
"                        t0q0p0p0p0p0p0p0p0p0p0f0e0J1J1J1J1J1J141d0                              ",
"                      c0q0p0p0p0b0a0Z0p0p0p0p0p0Y0X0J1J1J1J1J1J141W0                            ",
"                      V0p0p0p0U0T0S0R0Q0p0p0p0p0p0o0P0J1J1J1J1J1J141O0                          ",
"                      p0p0p0U0T0S0S0S0N0p0p0p0p0p0M0  L0J1J1J1J1J1J1                            ",
"                      p0p0U0T0S0S0S0K0J0p0p0p0p0I0      01J1J1J1J1                              ",
"                    H0p0U0T0S0S0S0G0F0p0p0p0p0E0          x0J1J1                                ",
"                  H0p0D0T0S0S0S0G0F0p0p0p0p0E0              C0                                  ",
"                H0p0D0T0S0S0S0G0F0p0p0p0p0E0                                                    ",
"              H0p0D0T0S0S0S0G0F0p0p0p0p0E0                                                      ",
"            H0p0D0T0S0S0S0K0F0p0p0p0p0B0                                                        ",
"          t0p0A0T0S0S0S0K0;0p0:0                                                                ",
"          90p080S0S0S0K0;0p0:0                                                                  ",
"          70p060S0S0K0;0p0:0                                                                    ",
"          50p040303020p0:0                                                                      ",
"            10p0p0p0p010                                                                        ",
"              00M0M000                                                                          ",
"                                                                                                ",
"                                                                                                ",
"                                                                                                ",
"                                                                                                ",
"                                                                                                "};
