/* XPM */
static char *image[] = {
"48 48 246 2",
"   c None",
"00 c #3d9f00",
"10 c #3da000",
"20 c #3ba000",
"30 c #8a8a8a",
"40 c #929292",
"50 c #3aa000",
"60 c #a8a8a8",
"70 c #a3a3a3",
"80 c #b6b6b6",
"90 c #3aa200",
":0 c #a4a4a4",
";0 c #a2a2a2",
"A0 c #a0a0a0",
"B0 c #39a200",
"C0 c #999999",
"D0 c #72bc55",
"E0 c #979797",
"F0 c #84cb70",
"G0 c #4b4b4b",
"H0 c #667461",
"I0 c #b7b7b7",
"J0 c #37a300",
"K0 c #6c6c6c",
"L0 c #37a400",
"M0 c #888888",
"N0 c #36a400",
"O0 c #797979",
"P0 c #585858",
"Q0 c #363636",
"R0 c #777777",
"S0 c #666666",
"T0 c #d9d9d9",
"U0 c #484848",
"V0 c #35a400",
"W0 c #4aa620",
"X0 c #a9d098",
"Y0 c #2a2a2a",
"Z0 c #6a6a6a",
"a0 c #565656",
"b0 c #8da488",
"c0 c #82d073",
"d0 c #2ab111",
"e0 c #737373",
"f0 c #7a7a7a",
"g0 c #b4b4b4",
"h0 c #707070",
"i0 c #33a600",
"j0 c #848484",
"k0 c #101010",
"l0 c #bebebe",
"m0 c #b2b2b2",
"n0 c #d0d0d0",
"o0 c #717171",
"p0 c #111111",
"q0 c #989898",
"r0 c #0b0b0b",
"s0 c #32a700",
"t0 c #bbbbbb",
"u0 c #d8d8d8",
"v0 c #afafaf",
"w0 c #b9b9b9",
"x0 c #dadada",
"y0 c #868686",
"z0 c #31a800",
"01 c #333333",
"11 c #2fa800",
"21 c #5d5d5d",
"31 c #bcbcbc",
"41 c #6d6d6d",
"51 c #282828",
"61 c #6e6e6e",
"71 c #adadad",
"81 c #2faa00",
"91 c #7e7e7e",
":1 c #8f8f8f",
";1 c #4c4c4c",
"A1 c #fcfcfc",
"B1 c #2f2f2f",
"C1 c #919191",
"D1 c #121212",
"E1 c #383838",
"F1 c #5a5a5a",
"G1 c #fdfdfd",
"H1 c #292929",
"I1 c #878787",
"J1 c #2eaa00",
"K1 c #646464",
"L1 c #181818",
"M1 c #9e9e9e",
"N1 c #cfcfcf",
"O1 c #606060",
"P1 c #f5f5f5",
"Q1 c #bababa",
"R1 c #2daa00",
"S1 c #626262",
"T1 c #212121",
"U1 c #b0b0b0",
"V1 c #060606",
"W1 c #5e5e5e",
"X1 c #f6f6f6",
"Y1 c #2dab00",
"Z1 c #cccccc",
"a1 c #2c2c2c",
"b1 c #c2c2c2",
"c1 c #676767",
"d1 c #f4f4f4",
"e1 c #9a9a9a",
"f1 c #c3c3c3",
"g1 c #2bab00",
"h1 c #393939",
"i1 c #080808",
"j1 c #6f6f6f",
"k1 c #1e1e1e",
"l1 c #d5d5d5",
"m1 c #494949",
"n1 c #787878",
"o1 c #efefef",
"p1 c #1b1b1b",
"q1 c #b5b5b5",
"r1 c #2bac00",
"s1 c #7cc463",
"t1 c #86a07e",
"u1 c #090909",
"v1 c #ededed",
"w1 c #171717",
"x1 c #8fa98c",
"y1 c #7cd472",
"z1 c #24b814",
"02 c #2aac00",
"12 c #7c7c7c",
"22 c #f1f1f1",
"32 c #959595",
"42 c #2aad00",
"52 c #e1e1e1",
"62 c #808080",
"72 c #eaeaea",
"82 c #131313",
"92 c #ababab",
":2 c #d2d2d2",
";2 c #bdbdbd",
"A2 c #cbcbcb",
"B2 c #7d7d7d",
"C2 c #141414",
"D2 c #242424",
"E2 c #c6c6c6",
"F2 c #29ad00",
"G2 c #898989",
"H2 c #0f0f0f",
"I2 c #d6d6d6",
"J2 c #c4c4c4",
"K2 c #e3e3e3",
"L2 c #dedede",
"M2 c #818181",
"N2 c #8e8e8e",
"O2 c #0c0c0c",
"P2 c #27ad00",
"Q2 c #dfdfdf",
"R2 c #3a3a3a",
"S2 c #677964",
"T2 c #0d0d0d",
"U2 c #020202",
"V2 c #969696",
"W2 c #e7e7e7",
"X2 c #0e0e0e",
"Y2 c #27af00",
"Z2 c #cacaca",
"a2 c #939393",
"b2 c #1d1d1d",
"c2 c #d7d7d7",
"d2 c #7dd371",
"e2 c #040404",
"f2 c #a7a7a7",
"g2 c #0a0a0a",
"h2 c #26af00",
"i2 c #cdcdcd",
"j2 c #9d9d9d",
"k2 c #c0c0c0",
"l2 c #010101",
"m2 c #a9a9a9",
"n2 c #f0f0f0",
"o2 c #e5e5e5",
"p2 c #070707",
"q2 c #26b000",
"r2 c #29ad0e",
"s2 c #cecece",
"t2 c #e0e0e0",
"u2 c #f3f3f3",
"v2 c #aeaeae",
"w2 c #d1d1d1",
"x2 c #dddddd",
"y2 c #d3d3d3",
"z2 c #e4e4e4",
"03 c #c8c8c8",
"13 c #b3b3b3",
"23 c #262626",
"33 c #25b000",
"43 c #d4d4d4",
"53 c #e8e8e8",
"63 c #dcdcdc",
"73 c #e2e2e2",
"83 c #e6e6e6",
"93 c #c9c9c9",
":3 c #030303",
";3 c #656565",
"A3 c #f9f9f9",
"B3 c #ffffff",
"C3 c #c7c7c7",
"D3 c #c5c5c5",
"E3 c #c1c1c1",
"F3 c #1f1f1f",
"G3 c #bfbfbf",
"H3 c #404040",
"I3 c #323232",
"J3 c #000000",
"K3 c #050505",
"L3 c #23b100",
"M3 c #22b100",
"N3 c #21b300",
"O3 c #1fb300",
"P3 c #1fb400",
"Q3 c #1eb500",
"R3 c #1db500",
"S3 c #1bb500",
"T3 c #1bb700",
"U3 c #1ab700",
"V3 c #1ab800",
"W3 c #19b800",
"X3 c #19b900",
"Y3 c #17b900",
"Z3 c #16b900",
"a3 c #16bb00",
"b3 c #15bb00",
"c3 c #13bc00",
"d3 c #13bd00",
"e3 c #12bd00",
"f3 c #11bd00",
"g3 c #0fbf00",
"h3 c #0ec000",
"i3 c #0dc100",
"j3 c #0bc100",
"k3 c #0ac300",
"l3 c #09c300",
"m3 c #09c400",
"n3 c #07c400",
"o3 c #07c500",
"o3n3m3l3k3k3j3j3j3i3i3h3h3g3g3g3f3f3e3e3d3c3c3b3b3a3Z3Y3Y3Y3X3W3V3U3T3T3S3R3R3Q3Q3P3P3O3N3N3M3M3",
"n3                            f3                                U3                            L3",
"m3        K3J3J3I3            f3                                T3                            L3",
"l3      K3H3G3F3J3J3          e3              E3D3              T3                            L3",
"k3      J3C3B3A3;3:3J3        e3          938373635343          S3                            33",
"k3      J323B3B3B313J3        d3      0383z2y2      x253w2      R3                            33",
"j3      I3J3v2B3B3u2:3J3      c3    t2z2y2              x283s2  r2                            q2",
"j3        J3p2o2n2B3m2l2l2    c3  k2j2                      x283i2                            h2",
"j3          J3J3g2B3B3f2e2:3  d2c2y2J3b2a2                      6383Z2                        Y2",
"i3              J3X2W2B3V2U2T2S2K3J3J3J3U2R2D3                      Q2o2C3                    P2",
"i3                J3O253B3N2U2J3J3J3J3J3J3J3g2M2                        L2K2J2                P2",
"h3                I2J3H253B3G2J3J3J3J3J3J3J3                                L2K2E3            F2",
"h3            C3E2D2J3J3C2W2B3B2U2J3J3J3b2                                    A2Q273;2        F2",
"g3          :292K3J3J3J3J38272B362J3J3                                            Z2Q252;2    42",
"g3        w232J3J3J3J3J3J3J38222B312J3                                                03x2c2  02",
"g3f3f3z1y1x1J3J3J3J3J3J3J3J3J3w1v1B3M2u1                                                  t1s1r1",
"f3    q1E3U2J3J3J3J3J3J3J3J3J3J3p1o1B3n1u1                                            52m1j292r1",
"f3    l1k1J3J3J3J3J3J3J3J3J3J3J3J3F322B3j1i1                                        w2h1J3E3  g1",
"e3  f1e1J3J3J3J3J3J3J3J3J3J3J3J3J3J3b2d1B3c1X2                                    b1a1J3K3Z1  Y1",
"e3  43X2J3J3J3J3J3J3J3J3J3J3J3J3J3J3J3F3X1B3W1V1                                U1T1J3J3S1f1  R1",
"d3  Q1J3J3J3J3J3J3J3J3J3J3J3J3J3J3J3J3J3T1P1B3O1e2J3F3k1V1N1                  M1L1J3J3J3K1k2  J1",
"c3J2I1J3J3J3J3J3J3J3J3J3J3J3J3J3J3J3J3J3J3H1G1B3F1E1B3B3Q2D1                C182J3J3J3J3K393  J1",
"c3N1m1J3J3J3J3J3J3J3J3J3J3J3J3J3J3J3J3J3  J3B1A1B3B3B3B3B3;1:1            91H2J3J3J3J3J3J3E3  81",
"b3y2D1J3J3J3J3J3J3J3J3J3J3J3J3J3J3J3J3    71J361B3B3B3B3B3z251p2j2      41u1J3J3J3J3J3J3J331  81",
"b3y2D1J3J3J3J3J3J3J3J3J3J3J3J3J3J3        J3I3B3B3B3B3B3B3B3B353p1j25221K3J3J3J3J3J3J3J3J331  11",
"a3Z1m1J3J3J3J3J3J3J3J3J3J3J3J3J3          J3B3B3B3B3B3B3B3B3B3B3W2L101U2J3J3J3J3J3J3J3J3J3E3  z0",
"Z3b1y0J3J3J3J3J3J3J3J3J3J3J3J3            J3B3B3B3B3B3B3B3B3B3B3B3x082J3J3J3J3J3J3J3J3J3K303  z0",
"Y3  w0J3J3J3J3J3J3J3J3J3J3J3J3T1v0        J3K1B3B3B3B3B3B3B3B3B3B3B3u0D1J3J3J3J3J3J3J3J321t0  s0",
"Y3  :2r0J3J3J3J3J3J3J3J3J3J3J3J3L1q0        J3p0o0B3B3B3B3B3B3B3B3B3B3n0p0J3J3J3J3J3J3J3m0    s0",
"Y3  l032J3J3J3J3J3J3J3J3J3J3J3J3J3k0j0        71J3B3B3B3B3B3B3B3B3B3B3B3s2k0J3J3J3J3J32303    i0",
"X3    :2b2J3J3J3J3J3J3J3J3J3J3J3J3J3g2h0        J3h0B3B3B3B3B3B3B3B3B3B3B3A2T2J3J3J3J3g0e1    i0",
"W3    71k2U2J3J3J3J3J3J3J3J3J3J3J3J3J3K3O1        J3f0B3B3B3B3B3B3B3B3B3B3B303O2J3J3e0k2      i0",
"V3U3T3d0c0b0J3J3J3J3J3J3J3J3J3J3J3J3J3J3:3a0L2    :2J3Z0B3B3B3B3B3B3B3B3B3B3B3J2g2Y0X0W0i0i0i0V0",
"U3        s232J3J3J3J3J3J3J3J3J3J3J3J3J3J3l2U0i2T0S0g2l2R0B3B3B3B3B3B3B3B3B3B3B3g0u1Q0        V0",
"T3          A2m2K3J3J3J3J3J3J3J3J3J3J3J3J3J3J3R2P0V1J3J3J3O0B3B3B3B3B3B3B3B3B3B3B3;2u1X2      N0",
"T3            l0D3D2J3J3J3J3J3J3J3J3J3J3J3J3J3J3J3J3J3J3J3J3j0B3B3B3B3B3B3B3B3B3B3B3D3p2p0    N0",
"S3                w2V2K3J3J3J3J3J3J3J3J3J3J3J3J3J3J3J3J3J3J3l2M0B3B3B3B3B3B3B3B3B3B3B3A2K3    L0",
"R3                  Q1N1q0p0J3J3J3J3J3J3J3J3J3J3J3J3J3J3J3J3J3J3G2B3B3B3B3B3B3B3B3B3B3B3K0J3  J0",
"R3                      q1N1I0H0X2J3J3J3J3J3J3J3J3J3J3J3J3J3J3G0U2j2B3B3B3B3B3B3B3B3B3B3u0J3  J0",
"Q3                            F0Z2b1U1E0r0J3J3J3J3J3J3U2j2l093k2D0U2C0B3B3B3B3B3B3B3B3B3A1J3  B0",
"Q3                            Y2    A0D3f1K3J3J3J3J3U2U1f1      z0  e2;0B3B3B3B3B3B3B3B373J3  B0",
"P3                            P2        g0Q1U2J3J3J3:031        z0    K3;0B3B3B3B3B3B3B3f0J3  90",
"P3                            P2          8080U2J370k2          s0      e260B3B3B3B3B3Q2i1J3  50",
"O3                            F2            I0f240k2            s0        :3K043B32230r0J3    20",
"N3                            F2                                i0          J3J3J3J3J3J3      20",
"N3                            42                                i0                            20",
"M3                            02                                i0                            10",
"M3L3L3L33333q2h2Y2P2P2F2F24202r1r1g1Y1R1J1J1818111z0z0s0s0i0i0i0V0V0N0N0L0J0J0B0B090502020201000"};
