/* XPM */
static char *image[] = {
"48 48 40 1",
"  c None",
"0 c #8a8a8a",
"1 c #727272",
"2 c #787878",
"3 c #cfcfcf",
"4 c #d5d5d5",
"5 c #ececec",
"6 c #d6d6d6",
"7 c #8d8d8d",
"8 c #8c8c8c",
"9 c #8e8e8e",
": c #ffcd54",
"; c #ffcd55",
"A c #f8d05d",
"B c #b0ce58",
"C c #ffd265",
"D c #f7d164",
"E c #b1ce59",
"F c #7bc94f",
"G c #7ccb50",
"H c #84d755",
"I c #89e059",
"J c #8bdd68",
"K c #89e058",
"L c #8ae059",
"M c #8cde69",
"N c #68aba5",
"O c #95e369",
"P c #8fdc6e",
"Q c #68aca4",
"R c #4a85cb",
"S c #4a86cd",
"T c #4f8ed9",
"U c #5394e2",
"V c #5c9ae4",
"W c #5294e2",
"X c #5395e2",
"Y c #5c99e3",
"Z c #649fe5",
"a c #639fe5",
"                                                ",
"                                                ",
"                                                ",
"                                                ",
"       aZZZZZZZZZZZZZZZZZZZZZZZZZZZZZZZZa       ",
"      YXWWWWWWWWWWWWWWWWWWWWWWWWWWWWWWWWXV      ",
"      UWWWWWWWWWWWWWWWWWWWWWWWWWWWWWWWWWWU      ",
"      TSRRRRRRRRRRRRRRRRRRRRRRRRRRRRRRRRST      ",
"      QPOOOOOOOOOOOOOOOOOOOOOOOOOOOOOOOOPN      ",
"      MLKKKKKKKKKKKKKKKKKKKKKKKKKKKKKKKKLJ      ",
"      IKKKKKKKKKKKKKKKKKKKKKKKKKKKKKKKKKKI      ",
"      HGFFFFFFFFFFFFFFFFFFFFFFFFFFFFFFFFGH      ",
"      EDCCCCCCCCCCCCCCCCCCCCCCCCCCCCCCCCDB      ",
"      A;::::::::::::::::::::::::::::::::;A      ",
"      ;::::::::::::::::::::::::::::::::::;      ",
"      ::::::::::::::::::::::::::::::::::::      ",
"     99999999999999999999999999999999999999     ",
"    8999999999999999999999999999999999999997    ",
"    9999999999999999999999999999999999999999    ",
"    9999999999999999999999999999999999999999    ",
"    9999999999999999999999999999999999999999    ",
"    9999999999999999999999999999999999999999    ",
"    9999999999999999999999999999999999999999    ",
"    9999999999999999999999999999999999999999    ",
"    9999999999999999999999999999999999999999    ",
"    9999999999999999999999999999999999999999    ",
"    9999999999999999999999999999999999999999    ",
"    9999999999999655555555555549999999999999    ",
"    9999999999999555555555555559999999999999    ",
"    9999999999999555555555555559999999999999    ",
"    9999999999999355555555555539999999999999    ",
"    9999999999999211111111111129999999999999    ",
"    9999999999999999999999999999999999999999    ",
"    9999999999999999999999999999999999999999    ",
"    9999999999999999999999999999999999999999    ",
"    9999999999999999999999999999999999999999    ",
"    9999999999999999999999999999999999999999    ",
"    9999999999999999999999999999999999999999    ",
"    9999999999999999999999999999999999999999    ",
"    9999999999999999999999999999999999999999    ",
"    9999999999999999999999999999999999999999    ",
"    9999999999999999999999999999999999999999    ",
"    0999999999999999999999999999999999999990    ",
"     09999999999999999999999999999999999990     ",
"                                                ",
"                                                ",
"                                                ",
"                                                "};
