/* XPM */
static char * l_xpm[] = {
"5 14 5 1",
" 	c None",
".	c #303030",
"+	c #F3F4EF",
"@	c #A8ACA8",
"#	c #D8D8D8",
".+#@.",
".+#@.",
".+#@.",
".+#@.",
".+#@.",
".+#@.",
".+#@.",
".+#@.",
".+#@.",
".+#@.",
".+#@.",
".+#@.",
".+#@.",
".+#@."};
